<?xml version="1.0" encoding="UTF-8"?>
<svg width="421.33" height="174.67" version="1.1" viewBox="0 0 421.33334 174.66667" xml:space="preserve" xmlns="http://www.w3.org/2000/svg" xmlns:cc="http://creativecommons.org/ns#" xmlns:dc="http://purl.org/dc/elements/1.1/" xmlns:rdf="http://www.w3.org/1999/02/22-rdf-syntax-ns#"><metadata><rdf:RDF><cc:Work rdf:about=""><dc:format>image/svg+xml</dc:format><dc:type rdf:resource="http://purl.org/dc/dcmitype/StillImage"/><dc:title/></cc:Work></rdf:RDF></metadata><defs><clipPath id="clipPath18"><path d="m0 0h316v130.71h-316z" clip-rule="evenodd"/></clipPath><clipPath id="clipPath30"><path d="m0 0h316v129.99h-316z" clip-rule="evenodd"/></clipPath></defs><g transform="matrix(1.3333 0 0 1.3333 0 7.7e-6)"><g clip-path="url(#clipPath18)"><g transform="scale(.71818)"><path d="m0 0h440v182h-440z" fill="#fff"/></g></g><g clip-path="url(#clipPath30)"><g transform="matrix(.71818 0 0 .71818 .35909 .35909)"><path d="m86 0h304c2.4853 0 4.6066 0.87868 6.364 2.636 1.7574 1.7574 2.636 3.8787 2.636 6.364v162c-3e-5 2.4853-0.87869 4.6066-2.636 6.364-1.7574 1.7574-3.8787 2.636-6.364 2.636h-304c-2.4853 0-4.6066-0.87868-6.364-2.636-1.7574-1.7574-2.636-3.8787-2.636-6.364v-162c-8e-6 -2.4853 0.87867-4.6066 2.636-6.364 1.7574-1.7574 3.8787-2.636 6.364-2.636z" fill="#e6e6e6"/><path d="m149 70h50v40h-50z" fill="#f90"/><path d="m149 70h50v40h-50z" fill="none" stroke="#ff7c00" stroke-miterlimit="10"/></g><g transform="matrix(.71818 0 0 .71818 109.16 55.3)" fill="#000000" font-family="Helvetica" font-size="12px"><text transform="translate(4.3281 11)"><tspan x="0 3.3339844 10.007812 13.341797 20.015625 24.011719 34.007812" y="0">Interm.</tspan></text>
<text transform="translate(.64062 25)"><tspan x="0 2.6660156 9.3398438 15.339844 18.673828 25.347656 32.021484 38.021484" y="0">instance</tspan></text>
</g><g transform="matrix(.71818 0 0 .71818 .35909 .35909)"><path d="m279 70h50v40h-50z" fill="#f90"/><path d="m279 70h50v40h-50z" fill="none" stroke="#ff7c00" stroke-miterlimit="10"/></g><g transform="matrix(.71818 0 0 .71818 202.53 55.3)" fill="#000000" font-family="Helvetica" font-size="12px"><text transform="translate(4.3281 11)"><tspan x="0 3.3339844 10.007812 13.341797 20.015625 24.011719 34.007812" y="0">Interm.</tspan></text>
<text transform="translate(.64062 25)"><tspan x="0 2.6660156 9.3398438 15.339844 18.673828 25.347656 32.021484 38.021484" y="0">instance</tspan></text>
</g><g transform="matrix(.71818 0 0 .71818 .35909 .35909)"><path d="m361 18h50v40h-50z" fill="#ff5e34"/><path d="m361 18h50v40h-50z" fill="none" stroke="#f63c00" stroke-miterlimit="10"/></g><g transform="matrix(.71818 0 0 .71818 261.42 17.955)" fill="#000000" font-family="Helvetica" font-size="12px"><text transform="translate(4.9844 11)"><tspan x="0 9.3339844 16.007812 19.341797 26.015625 32.689453" y="0">Output</tspan></text>
<text transform="translate(.64062 25)"><tspan x="0 2.6660156 9.3398438 15.339844 18.673828 25.347656 32.021484 38.021484" y="0">instance</tspan></text>
</g><g transform="matrix(.71818 0 0 .71818 .35909 .35909)"><path d="m258.93 90h12.7" fill="none" stroke="#000" stroke-miterlimit="10"/><path d="m276.88 90-7 3.5 1.75-3.5-1.75-3.5z" fill="#ff7c00"/><g stroke="#000" stroke-miterlimit="10"><path d="m276.88 90-7 3.5 1.75-3.5-1.75-3.5z"/><path d="m228 89h2v2h-2z"/><path d="m238 89h2v2h-2z"/><path d="m248 89h2v2h-2z"/></g><path d="m199 89h12.63" fill="none" stroke="#000" stroke-miterlimit="10"/><path d="m216.88 89-7 3.5 1.75-3.5-1.75-3.5z"/><path d="m216.88 89-7 3.5 1.75-3.5-1.75-3.5z" fill="none" stroke="#000" stroke-miterlimit="10"/><path d="m361 120.5h50v40h-50z" fill="#ff5e34"/><path d="m361 120.5h50v40h-50z" fill="none" stroke="#f63c00" stroke-miterlimit="10"/></g><g transform="matrix(.71818 0 0 .71818 261.42 91.927)" fill="#000000" font-family="Helvetica" font-size="12px"><text transform="translate(4.9844 11)"><tspan x="0 9.3339844 16.007812 19.341797 26.015625 32.689453" y="0">Output</tspan></text>
<text transform="translate(.64062 25)"><tspan x="0 2.6660156 9.3398438 15.339844 18.673828 25.347656 32.021484 38.021484" y="0">instance</tspan></text>
</g><g transform="matrix(.71818 0 0 .71818 .35909 .35909)"><path d="m411 37h13.63" fill="none" stroke="#000" stroke-miterlimit="10"/><path d="m429.88 37-7 3.5 1.75-3.5-1.75-3.5z"/><path d="m429.88 37-7 3.5 1.75-3.5-1.75-3.5z" fill="none" stroke="#000" stroke-miterlimit="10"/><path d="m411 140.5h13.63" fill="none" stroke="#000" stroke-miterlimit="10"/><path d="m429.88 140.5-7 3.5 1.75-3.5-1.75-3.5z"/><path d="m429.88 140.5-7 3.5 1.75-3.5-1.75-3.5z" fill="none" stroke="#000" stroke-miterlimit="10"/><path d="m117 38h8c5.3333 0 8 3.3333 8 10v32c0 6.6667 1.6067 10 4.82 10h4.81" fill="none" stroke="#000" stroke-miterlimit="10"/><path d="m147.88 90-7 3.5 1.75-3.5-1.75-3.5z" fill="#36c"/><path d="m147.88 90-7 3.5 1.75-3.5-1.75-3.5z" fill="none" stroke="#36c" stroke-miterlimit="10"/><path d="m117 142h8c5.3333 0 8-3.3333 8-10v-32c0-6.6667 1.6067-10 4.82-10h4.81" fill="none" stroke="#000" stroke-miterlimit="10"/><path d="m147.88 90-7 3.5 1.75-3.5-1.75-3.5z"/><path d="m147.88 90-7 3.5 1.75-3.5-1.75-3.5z" fill="none" stroke="#000" stroke-miterlimit="10"/><path d="m92.39 78h2v2h-2z"/><path d="m92.39 78h2v2h-2z" fill="none" stroke="#000" stroke-miterlimit="10"/><path d="m92.39 98h2v2h-2z"/><path d="m92.39 98h2v2h-2z" fill="none" stroke="#000" stroke-miterlimit="10"/><path d="m92.39 88h2v2h-2z"/><path d="m92.39 88h2v2h-2z" fill="none" stroke="#000" stroke-miterlimit="10"/><path d="m381 78h2v2h-2z"/><path d="m381 78h2v2h-2z" fill="none" stroke="#000" stroke-miterlimit="10"/><path d="m381 98h2v2h-2z"/><path d="m381 98h2v2h-2z" fill="none" stroke="#000" stroke-miterlimit="10"/><path d="m381 88h2v2h-2z"/><path d="m381 88h2v2h-2z" fill="none" stroke="#000" stroke-miterlimit="10"/><path d="m329 90h8c5.3333 0 8-3.3333 8-10v-32c0-6.6667 1.6067-10 4.82-10h4.81" fill="none" stroke="#000" stroke-miterlimit="10"/><path d="m359.88 38-7 3.5 1.75-3.5-1.75-3.5z"/><path d="m359.88 38-7 3.5 1.75-3.5-1.75-3.5z" fill="none" stroke="#000" stroke-miterlimit="10"/><path d="m329 90h8c5.3333 0 8 3.3333 8 10v31c0 6.6667 1.6067 10 4.82 10h4.81" fill="none" stroke="#000" stroke-miterlimit="10"/><path d="m359.88 141-7 3.5 1.75-3.5-1.75-3.5z"/><path d="m359.88 141-7 3.5 1.75-3.5-1.75-3.5z" fill="none" stroke="#000" stroke-miterlimit="10"/><path d="m7 38h53.63" fill="none" stroke="#000" stroke-miterlimit="10"/><path d="m65.88 38-7 3.5 1.75-3.5-1.75-3.5z"/><path d="m65.88 38-7 3.5 1.75-3.5-1.75-3.5z" fill="none" stroke="#000" stroke-miterlimit="10"/></g><g transform="matrix(.71818 0 0 .71818 10.773 8.6182)" fill="#000000" font-family="Helvetica" font-size="12px"><text transform="translate(.98438 11)"><tspan x="0 8.6660156 15.339844 18.673828 26.003906 28.669922 35.34375" y="0">NetFlow</tspan></text>
<text transform="translate(7.9844 25)"><tspan x="0 3.3339844 11.337891 18.667969 22.001953" y="0">IPFIX</tspan></text>
</g><g transform="matrix(.71818 0 0 .71818 .35909 .35909)"><path d="m67 18h50v40h-50z" fill="#69f"/><path d="m67 18h50v40h-50z" fill="none" stroke="#36c" stroke-miterlimit="10"/></g><g transform="matrix(.71818 0 0 .71818 50.273 17.955)" fill="#000000" font-family="Helvetica" font-size="12px"><text transform="translate(9.6406 11)"><tspan x="0 3.3339844 10.007812 16.681641 23.355469" y="0">Input</tspan></text>
<text transform="translate(.64062 25)"><tspan x="0 2.6660156 9.3398438 15.339844 18.673828 25.347656 32.021484 38.021484" y="0">instance</tspan></text>
</g><g transform="matrix(.71818 0 0 .71818 .35909 .35909)"><path d="m7 142h53.63" fill="none" stroke="#000" stroke-miterlimit="10"/><path d="m65.88 142-7 3.5 1.75-3.5-1.75-3.5z"/><path d="m65.88 142-7 3.5 1.75-3.5-1.75-3.5z" fill="none" stroke="#000" stroke-miterlimit="10"/></g><g transform="matrix(.71818 0 0 .71818 10.773 83.309)" fill="#000000" font-family="Helvetica" font-size="12px"><text transform="translate(.98438 11)"><tspan x="0 8.6660156 15.339844 18.673828 26.003906 28.669922 35.34375" y="0">NetFlow</tspan></text>
<text transform="translate(7.9844 25)"><tspan x="0 3.3339844 11.337891 18.667969 22.001953" y="0">IPFIX</tspan></text>
</g><g transform="matrix(.71818 0 0 .71818 .35909 .35909)"><path d="m67 122h50v40h-50z" fill="#69f"/><path d="m67 122h50v40h-50z" fill="none" stroke="#36c" stroke-miterlimit="10"/></g><g transform="matrix(.71818 0 0 .71818 50.273 92.645)" fill="#000000" font-family="Helvetica" font-size="12px"><text transform="translate(9.6406 11)"><tspan x="0 3.3339844 10.007812 16.681641 23.355469" y="0">Input</tspan></text>
<text transform="translate(.64062 25)"><tspan x="0 2.6660156 9.3398438 15.339844 18.673828 25.347656 32.021484 38.021484" y="0">instance</tspan></text>
</g></g></g></svg>
