<?xml version="1.0" encoding="UTF-8"?>
<svg width="314.83mm" height="151.73mm" version="1.1" viewBox="0 0 314.82684 151.73206" xmlns="http://www.w3.org/2000/svg" xmlns:osb="http://www.openswatchbook.org/uri/2009/osb" xmlns:xlink="http://www.w3.org/1999/xlink"><defs><linearGradient id="a"><stop stop-color="#bfbfbf" stop-opacity=".0024155" offset="0"/><stop stop-color="#bfbfbf" offset="1"/></linearGradient><linearGradient id="e" x1="39.378" x2="56.699" y1="242" y2="232" gradientUnits="userSpaceOnUse" xlink:href="#a"/><linearGradient id="d" x1="39.378" x2="56.699" y1="242" y2="232" gradientTransform="translate(-51.962 -30)" gradientUnits="userSpaceOnUse" xlink:href="#a"/><linearGradient id="c" x1="39.378" x2="56.699" y1="242" y2="232" gradientTransform="translate(157.65 -91.082)" gradientUnits="userSpaceOnUse" xlink:href="#a"/><linearGradient id="b" x1="39.378" x2="56.699" y1="242" y2="232" gradientTransform="translate(105.69 -121.08)" gradientUnits="userSpaceOnUse" xlink:href="#a"/></defs><g transform="translate(38.221 -20)"><path d="m15.77 112.5 77.942 45 138.56-80-77.942-45z" fill="#bfbfbf" fill-opacity=".58937"/><g transform="matrix(1 .57735 -.86603 .5 15.363 -77)" fill="#36c" stroke-width=".26458" style="font-feature-settings:normal;font-variant-caps:normal;font-variant-ligatures:normal;font-variant-numeric:normal" aria-label="  INPUT PLUGINS"><path d="m195.17 174.74h0.79582v3.0861h-0.79582z" style="font-feature-settings:normal;font-variant-caps:normal;font-variant-ligatures:normal;font-variant-numeric:normal"/><path d="m196.75 174.74h0.88884l1.1224 2.1167v-2.1167h0.75448v3.0861h-0.88884l-1.1224-2.1167v2.1167h-0.75448z" style="font-feature-settings:normal;font-variant-caps:normal;font-variant-ligatures:normal;font-variant-numeric:normal"/><path d="m200.3 174.74h1.3208q0.58911 0 0.90331 0.26252 0.31626 0.26045 0.31626 0.74414 0 0.48576-0.31626 0.74827-0.3142 0.26045-0.90331 0.26045h-0.52503v1.0707h-0.79582zm0.79582 0.57671v0.86196h0.44028q0.23151 0 0.3576-0.11162 0.12609-0.11369 0.12609-0.32039 0-0.20671-0.12609-0.31833t-0.3576-0.11162z" style="font-feature-settings:normal;font-variant-caps:normal;font-variant-ligatures:normal;font-variant-numeric:normal"/><path d="m203.4 174.74h0.79582v1.85q0 0.3824 0.12402 0.54777 0.12609 0.16329 0.40928 0.16329 0.28525 0 0.40927-0.16329 0.12609-0.16537 0.12609-0.54777v-1.85h0.79582v1.85q0 0.65525-0.32866 0.97565-0.32866 0.32039-1.0025 0.32039-0.6718 0-1.0005-0.32039-0.32866-0.3204-0.32866-0.97565z" style="font-feature-settings:normal;font-variant-caps:normal;font-variant-ligatures:normal;font-variant-numeric:normal"/><path d="m206.47 174.74h2.8443v0.60151h-1.0232v2.4846h-0.79581v-2.4846h-1.0253z" style="font-feature-settings:normal;font-variant-caps:normal;font-variant-ligatures:normal;font-variant-numeric:normal"/><path d="m192.23 180.03h1.3208q0.58911 0 0.90331 0.26251 0.31626 0.26045 0.31626 0.74414 0 0.48576-0.31626 0.74828-0.3142 0.26045-0.90331 0.26045h-0.52503v1.0707h-0.79582zm0.79582 0.57671v0.86196h0.44028q0.23151 0 0.3576-0.11162 0.12609-0.11369 0.12609-0.3204 0-0.2067-0.12609-0.31832t-0.3576-0.11162z" style="font-feature-settings:normal;font-variant-caps:normal;font-variant-ligatures:normal;font-variant-numeric:normal"/><path d="m195.33 180.03h0.79582v2.4846h1.3973v0.60151h-2.1932z" style="font-feature-settings:normal;font-variant-caps:normal;font-variant-ligatures:normal;font-variant-numeric:normal"/><path d="m197.87 180.03h0.79582v1.85q0 0.38241 0.12402 0.54777 0.12609 0.1633 0.40928 0.1633 0.28525 0 0.40928-0.1633 0.12609-0.16536 0.12609-0.54777v-1.85h0.79582v1.85q0 0.65526-0.32867 0.97565-0.32866 0.3204-1.0025 0.3204-0.67179 0-1.0005-0.3204-0.32866-0.32039-0.32866-0.97565z" style="font-feature-settings:normal;font-variant-caps:normal;font-variant-ligatures:normal;font-variant-numeric:normal"/><path d="m204.09 182.88q-0.29766 0.14469-0.61805 0.21704-0.3204 0.0724-0.66146 0.0724-0.77101 0-1.2216-0.42995-0.45062-0.43202-0.45062-1.17 0-0.74621 0.45889-1.1741 0.45888-0.42788 1.2568-0.42788 0.30799 0 0.58911 0.0579 0.28318 0.0579 0.5333 0.17157v0.63872q-0.25838-0.14676-0.5147-0.21911-0.25425-0.0724-0.51056-0.0724-0.47542 0-0.73381 0.26666-0.25631 0.26458-0.25631 0.75861 0 0.48989 0.24804 0.75654 0.24805 0.26665 0.70487 0.26665 0.12402 0 0.22944-0.0145 0.10749-0.0165 0.19224-0.0496v-0.59945h-0.48576v-0.5333h1.2402z" style="font-feature-settings:normal;font-variant-caps:normal;font-variant-ligatures:normal;font-variant-numeric:normal"/><path d="m204.79 180.03h0.79582v3.0861h-0.79582z" style="font-feature-settings:normal;font-variant-caps:normal;font-variant-ligatures:normal;font-variant-numeric:normal"/><path d="m206.37 180.03h0.88884l1.1224 2.1167v-2.1167h0.75448v3.0861h-0.88884l-1.1224-2.1167v2.1167h-0.75448z" style="font-feature-settings:normal;font-variant-caps:normal;font-variant-ligatures:normal;font-variant-numeric:normal"/><path d="m212.06 180.12v0.65319q-0.25425-0.11369-0.4961-0.17157-0.24184-0.0579-0.45682-0.0579-0.28525 0-0.42168 0.0786-0.13642 0.0786-0.13642 0.24392 0 0.12402 0.0909 0.1943 0.093 0.0682 0.33486 0.11782l0.339 0.0682q0.5147 0.10336 0.73174 0.3142t0.21704 0.59944q0 0.51057-0.30386 0.76068-0.30179 0.24805-0.92397 0.24805-0.29353 0-0.58912-0.0558-0.29558-0.0558-0.59117-0.16537v-0.67179q0.29559 0.1571 0.5705 0.23771 0.27699 0.0786 0.5333 0.0786 0.26045 0 0.39895-0.0868 0.13849-0.0868 0.13849-0.24804 0-0.1447-0.0951-0.22325-0.093-0.0786-0.37414-0.14056l-0.30799-0.0682q-0.46302-0.0992-0.678-0.31626-0.21291-0.21704-0.21291-0.58498 0-0.46095 0.29766-0.709 0.29766-0.24804 0.85576-0.24804 0.25425 0 0.52297 0.0393 0.26872 0.0372 0.55604 0.11369z" style="font-feature-settings:normal;font-variant-caps:normal;font-variant-ligatures:normal;font-variant-numeric:normal"/></g><g transform="matrix(1 .57735 -.86603 .5 15.363 -77)" fill="#f63c00" stroke-width=".26458" style="font-feature-settings:normal;font-variant-caps:normal;font-variant-ligatures:normal;font-variant-numeric:normal" aria-label="OUTPUT PLUGINS"><path d="m194.02 35.888q-0.3638 0-0.5643 0.26872-0.20051 0.26872-0.20051 0.75654 0 0.48576 0.20051 0.75448 0.2005 0.26872 0.5643 0.26872 0.36587 0 0.56638-0.26872 0.2005-0.26872 0.2005-0.75448 0-0.48783-0.2005-0.75654-0.20051-0.26872-0.56638-0.26872zm0-0.57671q0.74414 0 1.1658 0.42581t0.42168 1.1762q0 0.74827-0.42168 1.1741t-1.1658 0.42581q-0.74207 0-1.1658-0.42581-0.42168-0.42581-0.42168-1.1741 0-0.75034 0.42168-1.1762 0.42375-0.42581 1.1658-0.42581z" style="font-feature-settings:normal;font-variant-caps:normal;font-variant-ligatures:normal;font-variant-numeric:normal"/><path d="m196.21 35.368h0.79582v1.85q0 0.38241 0.12402 0.54777 0.12609 0.1633 0.40928 0.1633 0.28525 0 0.40927-0.1633 0.12609-0.16536 0.12609-0.54777v-1.85h0.79582v1.85q0 0.65526-0.32866 0.97565t-1.0025 0.32039q-0.6718 0-1.0005-0.32039t-0.32866-0.97565z" style="font-feature-settings:normal;font-variant-caps:normal;font-variant-ligatures:normal;font-variant-numeric:normal"/><path d="m199.28 35.368h2.8443v0.60151h-1.0232v2.4846h-0.79581v-2.4846h-1.0253z" style="font-feature-settings:normal;font-variant-caps:normal;font-variant-ligatures:normal;font-variant-numeric:normal"/><path d="m202.53 35.368h1.3208q0.58911 0 0.90331 0.26252 0.31626 0.26045 0.31626 0.74414 0 0.48576-0.31626 0.74828-0.3142 0.26045-0.90331 0.26045h-0.52503v1.0707h-0.79582zm0.79582 0.57671v0.86196h0.44028q0.23151 0 0.3576-0.11162 0.12609-0.11369 0.12609-0.32039t-0.12609-0.31833-0.3576-0.11162z" style="font-feature-settings:normal;font-variant-caps:normal;font-variant-ligatures:normal;font-variant-numeric:normal"/><path d="m205.63 35.368h0.79582v1.85q0 0.38241 0.12402 0.54777 0.12609 0.1633 0.40928 0.1633 0.28525 0 0.40927-0.1633 0.12609-0.16536 0.12609-0.54777v-1.85h0.79582v1.85q0 0.65526-0.32866 0.97565t-1.0025 0.32039q-0.6718 0-1.0005-0.32039t-0.32866-0.97565z" style="font-feature-settings:normal;font-variant-caps:normal;font-variant-ligatures:normal;font-variant-numeric:normal"/><path d="m208.71 35.368h2.8443v0.60151h-1.0232v2.4846h-0.79581v-2.4846h-1.0253z" style="font-feature-settings:normal;font-variant-caps:normal;font-variant-ligatures:normal;font-variant-numeric:normal"/><path d="m192.61 40.659h1.3208q0.58911 0 0.9033 0.26252 0.31626 0.26045 0.31626 0.74414 0 0.48576-0.31626 0.74828-0.31419 0.26045-0.9033 0.26045h-0.52503v1.0707h-0.79582zm0.79582 0.57671v0.86196h0.44028q0.23151 0 0.3576-0.11162 0.12609-0.11369 0.12609-0.32039t-0.12609-0.31833-0.3576-0.11162z" style="font-feature-settings:normal;font-variant-caps:normal;font-variant-ligatures:normal;font-variant-numeric:normal"/><path d="m195.71 40.659h0.79581v2.4846h1.3973v0.60151h-2.1931z" style="font-feature-settings:normal;font-variant-caps:normal;font-variant-ligatures:normal;font-variant-numeric:normal"/><path d="m198.26 40.659h0.79582v1.85q0 0.3824 0.12402 0.54777 0.12609 0.1633 0.40928 0.1633 0.28525 0 0.40927-0.1633 0.1261-0.16536 0.1261-0.54777v-1.85h0.79581v1.85q0 0.65526-0.32866 0.97565-0.32866 0.32039-1.0025 0.32039-0.6718 0-1.0005-0.32039-0.32866-0.32039-0.32866-0.97565z" style="font-feature-settings:normal;font-variant-caps:normal;font-variant-ligatures:normal;font-variant-numeric:normal"/><path d="m204.47 43.516q-0.29765 0.14469-0.61805 0.21704-0.32039 0.07235-0.66145 0.07235-0.77102 0-1.2216-0.42995-0.45061-0.43202-0.45061-1.17 0-0.74621 0.45888-1.1741 0.45889-0.42788 1.2568-0.42788 0.30799 0 0.58911 0.05788 0.28319 0.05788 0.53331 0.17157v0.63872q-0.25839-0.14676-0.5147-0.21911-0.25425-0.07235-0.51056-0.07235-0.47543 0-0.73381 0.26665-0.25632 0.26458-0.25632 0.75861 0 0.48989 0.24805 0.75654t0.70487 0.26665q0.12402 0 0.22944-0.01447 0.10749-0.01654 0.19224-0.04961v-0.59945h-0.48576v-0.5333h1.2402z" style="font-feature-settings:normal;font-variant-caps:normal;font-variant-ligatures:normal;font-variant-numeric:normal"/><path d="m205.17 40.659h0.79582v3.0861h-0.79582z" style="font-feature-settings:normal;font-variant-caps:normal;font-variant-ligatures:normal;font-variant-numeric:normal"/><path d="m206.75 40.659h0.88883l1.1224 2.1167v-2.1167h0.75447v3.0861h-0.88883l-1.1224-2.1167v2.1167h-0.75448z" style="font-feature-settings:normal;font-variant-caps:normal;font-variant-ligatures:normal;font-variant-numeric:normal"/><path d="m212.44 40.756v0.65319q-0.25424-0.11369-0.49609-0.17157-0.24185-0.05788-0.45682-0.05788-0.28525 0-0.42168 0.07855t-0.13643 0.24391q0 0.12402 0.091 0.1943 0.093 0.06821 0.33487 0.11782l0.339 0.06821q0.51469 0.10335 0.73173 0.31419t0.21704 0.59945q0 0.51056-0.30385 0.76068-0.30179 0.24805-0.92398 0.24805-0.29352 0-0.58911-0.05581t-0.59118-0.16536v-0.67179q0.29559 0.1571 0.57051 0.23771 0.27699 0.07855 0.5333 0.07855 0.26045 0 0.39894-0.08682 0.1385-0.08682 0.1385-0.24805 0-0.14469-0.0951-0.22324-0.093-0.07855-0.37414-0.14056l-0.30799-0.06821q-0.46302-0.09922-0.67799-0.31626-0.21291-0.21704-0.21291-0.58498 0-0.46095 0.29766-0.709 0.29765-0.24805 0.85576-0.24805 0.25425 0 0.52296 0.03927 0.26872 0.03721 0.55604 0.11369z" style="font-feature-settings:normal;font-variant-caps:normal;font-variant-ligatures:normal;font-variant-numeric:normal"/></g></g><g transform="translate(53.583 -97)" display="none" fill="none" stroke="#bfbfbf" stroke-width=".1"><path d="m-125.17 147 294.45 170"/><path d="m-107.85 137 294.45 170"/><path d="m-90.526 127 294.45 170"/><path d="m-73.205 117 294.45 170"/><path d="m-194.45 27 433.01 250"/><path d="m-159.81 27 415.69 240"/><path d="m-125.17 27 398.37 230"/><path d="m-125.17 7 415.69 240"/><path d="m-90.526 7 398.37 230"/><path d="m30.718 57 294.45 170"/><path d="m48.038 47 294.45 170"/><path d="m65.359 37 294.45 170"/><path d="m82.679 27 294.45 170"/><path d="m100 17 294.45 170"/><path d="m-133.83 152 294.45 170"/><path d="m-116.51 142 294.45 170"/><path d="m-99.186 132 294.45 170"/><path d="m-81.865 122 294.45 170"/><path d="m-177.13 47 407.03 235"/><path d="m-177.13 27 424.35 245"/><path d="m-142.49 27 407.03 235"/><path d="m-107.85 27 389.71 225"/><path d="m-90.526 17 389.71 225"/><path d="m-90.526-3 407.03 235"/><path d="m-73.205-13 407.03 235"/><path d="m30.718 27 320.43 185"/><path d="m30.718 7 337.75 195"/><path d="m30.718-13 294.45 170"/><path d="m-194.45 187 329.09-190"/><path d="m151.96 7-329.09 190"/><path d="m169.28 17-329.09 190"/><path d="m-142.49 217 329.09-190"/><path d="m203.92 37-329.09 190"/><path d="m-107.85 237 329.09-190"/><path d="m238.56 57-329.09 190"/><path d="m-73.205 257 329.09-190"/><path d="m273.21 77-329.09 190"/><path d="m-38.564 277 329.09-190"/><path d="m307.85 97-329.09 190"/><path d="m-3.923 297 329.09-190"/><path d="m342.49 117-329.09 190"/><path d="m30.718 317 329.09-190"/><path d="m48.038 327 329.09-190"/><path d="m394.45 147-329.09 190"/><path d="m82.679 347 329.09-190"/><path d="m429.09 167-329.09 190"/><path d="m-185.79 192 329.09-190"/><path d="m160.62 12-329.09 190"/><path d="m177.94 22-329.09 190"/><path d="m-133.83 222 329.09-190"/><path d="m212.58 42-329.09 190"/><path d="m-99.186 242 329.09-190"/><path d="m247.22 62-329.09 190"/><path d="m-64.545 262 329.09-190"/><path d="m281.87 82-329.09 190"/><path d="m-29.904 282 329.09-190"/><path d="m316.51 102-329.09 190"/><path d="m4.7372 302 329.09-190"/><path d="m351.15 122-329.09 190"/><path d="m39.378 322 329.09-190"/><path d="m56.699 332 329.09-190"/><path d="m403.11 152-329.09 190"/><path d="m91.34 352 329.09-190"/><path d="m437.75 172-329.09 190"/><path d="m-333.01 107 329.09-190"/><path d="m13.397-73-329.09 190"/><path d="m30.718-63-329.09 190"/><path d="m-281.05 137 329.09-190"/><path d="m65.359-43-329.09 190"/><path d="m-246.41 157 329.09-190"/><path d="m100-23-329.09 190"/><path d="m-211.77 177 329.09-190"/><path d="m134.64-3-329.09 190"/><path d="m-324.35 112 329.09-190"/><path d="m22.058-68-329.09 190"/><path d="m39.378-58-329.09 190"/><path d="m-272.39 142 329.09-190"/><path d="m74.019-38-329.09 190"/><path d="m-237.75 162 329.09-190"/><path d="m108.66-18-329.09 190"/><path d="m-203.11 182 329.09-190"/><path d="m100 357 329.09-190"/><path d="m446.41 177-329.09 190"/><path d="m463.73 187-329.09 190"/><path d="m151.96 387 329.09-190"/><path d="m498.37 207-329.09 190"/><path d="m186.6 407 329.09-190"/><path d="m533.01 227-329.09 190"/><path d="m221.24 427 329.09-190"/><path d="m567.65 247-329.09 190"/><path d="m108.66 362 329.09-190"/><path d="m455.07 182-329.09 190"/><path d="m472.39 192-329.09 190"/><path d="m160.62 392 329.09-190"/><path d="m507.03 212-329.09 190"/><path d="m195.26 412 329.09-190"/><path d="m541.67 232-329.09 190"/><path d="m229.9 432 329.09-190"/><path d="m-237.75 212 294.45 170"/><path d="m-220.43 202 294.45 170"/><path d="m-203.11 192 294.45 170"/><path d="m-185.79 182 294.45 170"/><path d="m-168.47 172 294.45 170"/><path d="m-151.15 162 294.45 170"/><path d="m-246.41 217 294.45 170"/><path d="m-229.09 207 294.45 170"/><path d="m-211.77 197 294.45 170"/><path d="m-194.45 187 294.45 170"/><path d="m-177.13 177 294.45 170"/><path d="m-159.81 167 294.45 170"/><path d="m-142.49 157 294.45 170"/><path d="m30.718-33 372.39 215"/><path d="m125.98 2 294.45 170"/><path d="m143.3-8 294.45 170"/><path d="m160.62-18 294.45 170"/><path d="m177.94-28 294.45 170"/><path d="m195.26-38 294.45 170"/><path d="m100 17 294.45 170"/><path d="m-21.645-73.232 433.41 250.23"/><path d="m-3.9231-83 433.01 250"/><path d="m151.96-13 294.45 170"/><path d="m169.28-23 294.45 170"/><path d="m186.6-33 294.45 170"/><path d="m203.92-43 294.45 170"/></g><g transform="translate(53.583 -97)" display="none"><path d="m0.40707 189.5 77.942 45 138.56-80-77.942-45z" display="inline" fill="none" stroke="#000" stroke-linejoin="round" stroke-width=".2"/></g><g transform="translate(53.583 -97)"><g fill="none" stroke-width="4"><path d="m91.34 182 19.572-11.3" stroke="#f60"/><g stroke-linejoin="round"><path d="m134.64 157 12.99-7.5 25.981 15 6.442-3.7193" stroke="#c00"/><path d="m134.64 157 12.99-7.5-25.981-15 6.2272-3.5952" stroke="#c00"/><path d="m82.679 217 12.99-7.5-25.981-15 6.3145-3.6457" stroke="#69f"/><path d="m30.718 187 12.99-7.5 25.981 15 6.3145-3.6457" stroke="#69f"/></g></g><g><path d="m184.81 158.04c-0.27575 1.5852-0.56776 3.1675-0.86025 4.7497l-1.6792-0.96917-2.3048 1.3226-3.9919-2.3047 2.293-1.3321-1.5096-0.8692c2.6836-0.20712 5.3682-0.40113 8.0527-0.59713z" fill="#c00"/><path d="m132.62 128.17c-0.27575 1.5852-0.56776 3.1675-0.86025 4.7497l-1.6792-0.96917-2.3048 1.3226-3.9919-2.3047 2.293-1.3321-1.5096-0.8692c2.6836-0.20712 5.3682-0.40113 8.0527-0.59713z" fill="#c00"/><path d="m115.56 168.08c-0.27575 1.5852-0.56776 3.1675-0.86025 4.7497l-1.6792-0.96917-2.3048 1.3226-3.9919-2.3047 2.293-1.3321-1.5096-0.8692c2.6836-0.20712 5.3682-0.40113 8.0527-0.59713z" fill="#f60"/><path d="m80.857 188.05c-0.27575 1.5852-0.56776 3.1675-0.86025 4.7497l-1.6792-0.96917-2.3048 1.3226-3.9919-2.3047 2.293-1.3321-1.5096-0.8692c2.6836-0.20712 5.3682-0.40113 8.0527-0.59713z" fill="#69f"/></g><path d="m39.378 242 19.572-11.3" fill="none" stroke="url(#e)" stroke-width="4"/><path d="m63.596 228.08c-0.27575 1.5852-0.56776 3.1675-0.86025 4.7497l-1.6792-0.96917-2.3048 1.3226-3.9919-2.3047 2.293-1.3321-1.5096-0.8692c2.6836-0.20712 5.3682-0.40113 8.0527-0.59713z" fill="#bfbfbf"/><path d="m-12.583 212 19.572-11.3" fill="none" stroke="url(#d)" stroke-width="4"/><path d="m11.635 198.08c-0.27575 1.5852-0.56776 3.1675-0.86025 4.7497l-1.6792-0.96917-2.3048 1.3226-3.9919-2.3047 2.293-1.3321-1.5096-0.8692c2.6836-0.20712 5.3682-0.40113 8.0527-0.59713z" fill="#bfbfbf"/><path transform="translate(1.2917e-7 1.1875e-6)" d="m197.03 150.92 19.572-11.3" fill="none" stroke="url(#c)" stroke-width="4"/><path transform="translate(1.2917e-7 1.1875e-6)" d="m221.24 137c-0.27575 1.5852-0.56776 3.1675-0.86025 4.7497l-1.6792-0.96917-2.3048 1.3226-3.9919-2.3047 2.293-1.3321-1.5096-0.8692c2.6836-0.20712 5.3682-0.40113 8.0527-0.59713z" fill="#bfbfbf"/><path transform="translate(1.2917e-7 1.1875e-6)" d="m145.06 120.92 19.572-11.3" fill="none" stroke="url(#b)" stroke-width="4"/><path transform="translate(1.2917e-7 1.1875e-6)" d="m169.28 107c-0.27575 1.5852-0.56776 3.1675-0.86025 4.7497l-1.6792-0.96917-2.3048 1.3226-3.9919-2.3047 2.293-1.3321-1.5096-0.8692c2.6836-0.20712 5.3682-0.40113 8.0527-0.59713z" fill="#bfbfbf"/></g><g transform="translate(53.583 -97)"><g fill="#bfbfbf"><path d="m61.668 219.13 17.321-10 17.32 10-17.32 10z"/><path d="m78.588 179.36 17.321-10 17.32 10-17.32 10z"/><path d="m9.6216 189.18 17.321-10 17.32 10-17.32 10z"/><path d="m182.25 149.51 17.321-10 17.32 10-17.32 10z"/><path d="m130.66 119.3 17.321-10 17.32 10-17.32 10z"/><path d="m113.41 159.26 17.321-10 17.32 10-17.32 10z"/></g><g><path d="m74.019 222 17.321-10 8e-6 10-17.321 10z" fill="#039"/><path d="m56.699 212 17.321-10 17.321 10-17.321 10z" fill="#36c"/><path d="m56.699 212 17.321 10v10l-17.321-10z" fill="#69f"/><path d="m22.058 192 17.321-10 1e-5 10-17.321 10z" fill="#039"/><path d="m4.7372 182 17.321-10 17.321 10-17.321 10z" fill="#36c"/><path d="m4.7372 182 17.321 10v10l-17.321-10z" fill="#69f"/><path d="m91.34 182 17.321-10v10l-17.321 10z" fill="#ff5700"/><path d="m74.019 172 17.321-10 17.321 10-17.321 10z" fill="#ff7c00"/><path d="m74.019 172 17.321 10v10l-17.321-10z" fill="#f90"/><path d="m125.98 162 17.32-10v10l-17.32 10z" fill="#ff5700"/><path d="m108.66 152 17.321-10 17.32 10-17.32 10z" fill="#ff7c00"/><path d="m108.66 152 17.321 10v10l-17.321-10z" fill="#f90"/><path d="m195.26 152 17.32-10v10l-17.32 10z" fill="#c00"/><path d="m177.94 142 17.321-10 17.32 10-17.32 10z" fill="#f63c00"/><path d="m177.94 142 17.321 10v10l-17.321-10z" fill="#ff5e34"/><path d="m143.3 122 17.32-10v10l-17.32 10z" fill="#c00"/><path d="m125.98 112 17.321-10 17.32 10-17.32 10z" fill="#f63c00"/><path d="m125.98 112 17.321 10v10l-17.321-10z" fill="#ff5e34"/></g><path d="m202.05 138.14c-3.3938-1.9594-6.9539-2.8596-8.2818-2.0929l-8.0767 4.6631c-1.3279 0.76667 0.22858 2.8236 3.6224 4.783 3.3938 1.9594 6.9539 2.8596 8.2844 2.0914l8.0767-4.6631c1.3279-0.76667-0.2312-2.8221-3.625-4.7815zm-2.4947 7.4658c-0.8004 0.46211-3.8368-0.25873-6.9126-2.0345-3.0757-1.7758-4.3269-3.5274-3.5239-3.991l1.5358-0.8867c0.28419 0.98628 1.7391 2.3604 4.0436 3.6909 2.3045 1.3305 4.6876 2.1722 6.3928 2.3346zm2.6922-1.5544c-0.80039 0.4621-3.8368-0.25874-6.9125-2.0345-3.0757-1.7758-4.3268-3.5274-3.5239-3.991l1.5358-0.8867c0.28419 0.98628 1.7391 2.3604 4.0436 3.6909s4.6875 2.1722 6.3928 2.3346zm-0.83423-5.5438c3.0757 1.7758 4.3268 3.5274 3.5239 3.991-0.803 0.46362-3.8368-0.25873-6.9125-2.0345-3.0757-1.7758-4.3269-3.5274-3.5239-3.991 0.80298-0.4636 3.8368 0.25874 6.9125 2.0345zm-11.46 6.6165c-3.0757-1.7758-4.3269-3.5274-3.5239-3.991l1.5358-0.8867c0.2842 0.98627 1.7391 2.3604 4.0436 3.6909 2.3045 1.3305 4.6876 2.1722 6.3928 2.3346l-1.5358 0.88671c-0.80299 0.4636-3.8368-0.25874-6.9125-2.0345z" fill="#fff" stroke-width=".030007"/><g transform="matrix(.26699 .15415 -.23122 .13349 142.72 103.7)"><path d="m49 0c-3.309 0-6 2.691-6 6 0 1.035 0.263 2.009 0.726 2.86l-9.829 9.829c-1.355-1.055-3.051-1.689-4.897-1.689s-3.542 0.634-4.898 1.688l-7.669-7.669c0.352-0.595 0.567-1.279 0.567-2.019 0-2.206-1.794-4-4-4s-4 1.794-4 4 1.794 4 4 4c0.74 0 1.424-0.215 2.019-0.567l7.669 7.669c-1.054 1.356-1.688 3.052-1.688 4.898s0.634 3.542 1.688 4.897l-12.664 12.665c-1.066-0.967-2.475-1.562-4.024-1.562-3.309 0-6 2.691-6 6s2.691 6 6 6 6-2.691 6-6c0-1.035-0.263-2.009-0.726-2.86l12.829-12.829c1.106 0.86 2.44 1.436 3.898 1.619v10.16c-2.833 0.478-5 2.942-5 5.91 0 3.309 2.691 6 6 6s6-2.691 6-6c0-2.967-2.167-5.431-5-5.91v-10.16c1.458-0.183 2.792-0.759 3.898-1.619l7.669 7.669c-0.353 0.596-0.568 1.28-0.568 2.02 0 2.206 1.794 4 4 4s4-1.794 4-4-1.794-4-4-4c-0.74 0-1.424 0.215-2.019 0.567l-7.669-7.669c1.054-1.356 1.688-3.052 1.688-4.898s-0.634-3.542-1.688-4.897l9.665-9.665c1.065 0.967 2.474 1.562 4.023 1.562 3.309 0 6-2.691 6-6s-2.691-6-6-6zm-38 9c0-1.103 0.897-2 2-2s2 0.897 2 2-0.897 2-2 2-2-0.897-2-2zm-5 42c-2.206 0-4-1.794-4-4s1.794-4 4-4 4 1.794 4 4-1.794 4-4 4zm27-2c0 2.206-1.794 4-4 4s-4-1.794-4-4 1.794-4 4-4 4 1.794 4 4zm-4-18c-3.309 0-6-2.691-6-6s2.691-6 6-6 6 2.691 6 6-2.691 6-6 6zm18 10c0 1.103-0.897 2-2 2s-2-0.897-2-2 0.897-2 2-2 2 0.897 2 2zm2-31c-2.206 0-4-1.794-4-4s1.794-4 4-4 4 1.794 4 4-1.794 4-4 4z" fill="#fff"/></g><g transform="matrix(.26415 .15251 -.22876 .13207 124.84 144.49)"><path d="m26.039-0.029297c-6.2134 0-12.465 0.60091-17.166 1.7773-2.3504 0.58822-4.3137 1.3188-5.6914 2.1934-1.3777 0.87454-2.1719 1.8959-2.1719 3.0586 0 1.0545 0.65921 1.9915 1.8086 2.8086l17.191 23.523v17.52c0 0.44192 0.26303 0.83529 0.66992 1.0059a0.029999 0.029999 0 0 0 2e-3 0l0.68555 0.24609a0.029999 0.029999 0 0 0 2e-3 2e-3 0.029999 0.029999 0 0 0 0.0059 0 0.029999 0.029999 0 0 0 0.0059 0 0.029999 0.029999 0 0 0 0.0059 -2e-3 0.029999 0.029999 0 0 0 0.0059 -2e-3 0.029999 0.029999 0 0 0 2e-3 -2e-3 0.029999 0.029999 0 0 0 0.0039 -2e-3l10.662-10.664a0.029999 0.029999 0 0 0 2e-3 -2e-3 0.029999 0.029999 0 0 0 0.0039 -0.0059 0.029999 0.029999 0 0 0 0 -2e-3 0.029999 0.029999 0 0 0 2e-3 -0.0059 0.029999 0.029999 0 0 0 0 -0.0059v-8.076l17.18-23.51a0.029999 0.029999 0 0 0 2e-3 -0.00195 0.029999 0.029999 0 0 0 0.0039 -0.00586 0.029999 0.029999 0 0 0 0 -0.00195 0.029999 0.029999 0 0 0 0 -0.00391c1.1517-0.81776 1.8144-1.7572 1.8144-2.8125 0-1.1627-0.79418-2.1841-2.1719-3.0586-1.3777-0.87454-3.341-1.6051-5.6914-2.1934-4.7009-1.1764-10.953-1.7773-17.166-1.7773zm0 2.0586c7.0179 0 12.766 0.74004 16.758 1.7344 1.9959 0.49717 3.5535 1.0586 4.6094 1.6211 0.52794 0.28123 0.93004 0.56312 1.1992 0.83594 0.26918 0.27282 0.4043 0.53541 0.4043 0.7793 0 0.20143-0.09767 0.41566-0.28711 0.63867-0.18794 0.22125-0.4665 0.44961-0.82617 0.67969l-0.03906-0.00391a0.029999 0.029999 0 0 0 -0.0059 0 0.029999 0.029999 0 0 0 -0.0059 0 0.029999 0.029999 0 0 0 -0.0059 0.00195 0.029999 0.029999 0 0 0 -2e-3 0.00195 0.029999 0.029999 0 0 0 -0.0059 0.00391 0.029999 0.029999 0 0 0 -2e-3 0.00195 0.029999 0.029999 0 0 0 -0.0039 0.00586 0.029999 0.029999 0 0 0 0 0.00195 0.029999 0.029999 0 0 0 -2e-3 0.00586 0.029999 0.029999 0 0 0 0 0.00586 0.029999 0.029999 0 0 0 0 0.00586 0.029999 0.029999 0 0 0 2e-3 0.00586 0.029999 0.029999 0 0 0 2e-3 0.00195c-2.53e-4 1.576e-4 2.54e-4 0.0018 0 0.00195-1.418 0.88167-4.0897 1.782-7.7832 2.4629-3.714 0.6847-8.4605 1.1484-14.006 1.1484-5.5508 0-10.301-0.46301-14.018-1.1484-3.6943-0.68142-6.3647-1.5844-7.7791-2.4668v-0.00195a0.029999 0.029999 0 0 0 0.00195 -0.00195 0.029999 0.029999 0 0 0 0 -0.00195 0.029999 0.029999 0 0 0 0.00195 -0.00586 0.029999 0.029999 0 0 0 0 -0.00586 0.029999 0.029999 0 0 0 0 -0.00586 0.029999 0.029999 0 0 0 -0.00195 -0.00586 0.029999 0.029999 0 0 0 -0.00391 -0.00586 0.029999 0.029999 0 0 0 -0.00195 -0.00195 0.029999 0.029999 0 0 0 -0.00195 -0.00195 0.029999 0.029999 0 0 0 -0.00195 -0.00195 0.029999 0.029999 0 0 0 -0.00195 -0.00195l-0.41016-0.24221-0.0019531-0.0019531c-0.48625-0.37486-0.75195-0.74085-0.75195-1.0684 0-0.24389 0.13511-0.50648 0.4043-0.7793 0.26918-0.27282 0.67128-0.5547 1.1992-0.83594 1.0559-0.56247 2.6135-1.1239 4.6094-1.6211 3.9918-0.99434 9.7399-1.7344 16.758-1.7344zm-19.346 9.5938c4.8294 1.5903 12.11 2.4062 19.346 2.4062s14.515-0.81501 19.346-2.4043l-14.867 20.346h-8.9551zm15.375 22.406h7.9414v6.5449l-7.9414 7.9395z" fill="#fff"/></g><g transform="matrix(.024547 .014172 -.021258 .012273 90.63 165.24)"><path d="m328.84 368.73c-5.383-3.235-10.908-6.487-16.433-9.675 1.299-11.07 1.302-22.268 6e-3 -33.316 5.546-3.2 11.068-6.45 16.425-9.671 9.02-5.42 12.78-16.856 8.744-26.603l-1e-3 -1e-3 -11.771-28.418c-4.037-9.744-14.777-15.175-24.993-12.63-6.071 1.511-12.274 3.118-18.455 4.776-6.901-8.732-14.82-16.649-23.563-23.554 1.658-6.182 3.266-12.388 4.778-18.461 2.545-10.211-2.885-20.955-12.629-24.992l-28.418-11.771c-9.744-4.038-21.183-0.281-26.605 8.741-3.229 5.374-6.482 10.899-9.674 16.433-11.067-1.299-22.263-1.302-33.316-7e-3 -3.202-5.551-6.453-11.074-9.67-16.426-5.424-9.02-16.86-12.778-26.605-8.741l-28.418 11.771c-9.742 4.036-15.174 14.781-12.629 24.992 1.515 6.085 3.121 12.289 4.776 18.455-8.731 6.899-16.649 14.82-23.553 23.563-6.196-1.663-12.402-3.269-18.463-4.779-10.214-2.547-20.956 2.888-24.993 12.631l-11.769 28.417c-4.035 9.745-0.276 21.182 8.742 26.602 5.375 3.23 10.9 6.482 16.433 9.675-1.298 11.066-1.301 22.262-6e-3 33.316-5.538 3.195-11.06 6.446-16.429 9.672-9.018 5.421-12.777 16.857-8.741 26.603l11.772 28.418c4.036 9.743 14.775 15.176 24.993 12.63 6.064-1.51 12.268-3.116 18.453-4.776 6.901 8.731 14.82 16.647 23.563 23.553-1.66 6.189-3.267 12.395-4.778 18.461-2.545 10.211 2.885 20.956 12.629 24.992l28.419 11.772c2.64 1.093 5.403 1.615 8.137 1.615 7.362 0 14.514-3.779 18.471-10.355 3.205-5.333 6.456-10.856 9.674-16.432 11.065 1.297 22.264 1.299 33.316 6e-3 3.179 5.512 6.43 11.034 9.67 16.427 5.422 9.02 16.858 12.777 26.605 8.741l28.418-11.771c9.742-4.036 15.174-14.781 12.629-24.992-1.503-6.033-3.109-12.237-4.776-18.455 8.729-6.899 16.648-14.819 23.554-23.562 6.178 1.657 12.384 3.263 18.46 4.777 10.211 2.547 20.956-2.884 24.993-12.63l11.771-28.419c4.034-9.745 0.275-21.182-8.743-26.602zm-23.728 45.101c-5.837-1.462-11.787-3.008-17.703-4.602-8.376-2.253-17.215 0.692-22.519 7.507-6.096 7.83-13.151 14.886-20.968 20.973-6.807 5.302-9.748 14.138-7.493 22.509 1.603 5.954 3.148 11.9 4.601 17.696l-26.122 10.819c-3.107-5.184-6.218-10.481-9.259-15.765-4.327-7.514-12.655-11.678-21.216-10.618-9.831 1.221-19.81 1.22-29.654-5e-3 -8.585-1.066-16.906 3.098-21.232 10.614-3.078 5.344-6.19 10.644-9.263 15.773l-26.122-10.82c1.461-5.827 3.007-11.776 4.603-17.701 2.255-8.375-0.692-17.215-7.507-22.52-7.83-6.095-14.885-13.149-20.973-20.965-5.3-6.809-14.136-9.749-22.51-7.495-5.923 1.595-11.87 3.141-17.695 4.601l-10.82-26.121c5.16-3.094 10.459-6.205 15.765-9.26 7.515-4.327 11.683-12.653 10.619-21.215-1.223-9.832-1.22-19.81 3e-3 -29.655 1.068-8.57-3.097-16.905-10.616-21.233-5.304-3.054-10.604-6.166-15.772-9.265l10.82-26.121c5.82 1.459 11.768 3.005 17.702 4.602 8.372 2.256 17.212-0.692 22.52-7.507 6.095-7.83 13.15-14.886 20.965-20.972 6.808-5.301 9.749-14.138 7.494-22.512-1.59-5.904-3.136-11.85-4.601-17.694l26.122-10.819c3.084 5.146 6.196 10.444 9.259 15.765 4.328 7.515 12.663 11.689 21.216 10.618 9.827-1.223 19.804-1.223 29.657 5e-3 8.575 1.068 16.905-3.102 21.231-10.617 3.053-5.304 6.166-10.604 9.262-15.771l26.122 10.819c-1.462 5.833-3.008 11.782-4.603 17.703-2.255 8.374 0.692 17.214 7.507 22.519 7.829 6.095 14.885 13.149 20.973 20.965 5.3 6.807 14.133 9.748 22.511 7.494 5.919-1.594 11.865-3.14 17.694-4.601l10.819 26.121c-5.153 3.089-10.451 6.2-15.765 9.26-7.515 4.327-11.684 12.654-10.619 21.216 1.223 9.827 1.221 19.806-5e-3 29.657-1.066 8.571 3.101 16.904 10.617 21.231 5.296 3.049 10.596 6.161 15.772 9.263z" fill="#fff"/><path d="m241.76 312.51l-1e-3 -1e-3c-16.48-39.789-62.256-58.752-102.05-42.271-39.788 16.482-58.752 62.262-42.27 102.05 7.983 19.276 22.997 34.287 42.271 42.272 9.637 3.991 19.763 5.987 29.889 5.987s20.252-1.996 29.891-5.987c39.788-16.482 58.751-62.261 42.271-102.05zm-51.042 80.877c-13.618 5.641-28.617 5.64-42.239 0-13.618-5.641-24.225-16.249-29.867-29.868-11.647-28.114 1.753-60.462 29.868-72.107 6.885-2.852 14.021-4.202 21.047-4.202 21.667 0 42.265 12.84 51.06 34.07 11.645 28.114-1.755 60.461-29.869 72.107z" fill="#fff"/><path d="m496.55 100.94c-3.956-0.592-8.019-1.167-12.111-1.713-2.062-6.857-4.816-13.505-8.214-19.819 2.504-3.275 4.972-6.556 7.357-9.779 5.295-7.161 4.529-17.317-1.78-23.623l-15.808-15.806c-6.309-6.31-16.465-7.075-23.624-1.778-3.234 2.393-6.514 4.86-9.779 7.355-6.313-3.398-12.96-6.152-19.819-8.215-0.547-4.092-1.12-8.155-1.712-12.11-1.317-8.806-9.039-15.448-17.961-15.448h-22.356c-8.922 0-16.644 6.642-17.961 15.447-0.591 3.953-1.165 8.017-1.712 12.11-6.859 2.063-13.507 4.817-19.819 8.215-3.263-2.496-6.545-4.964-9.778-7.355-7.161-5.297-17.317-4.532-23.624 1.777l-15.806 15.805c-6.31 6.308-7.077 16.465-1.78 23.627 2.383 3.222 4.851 6.504 7.354 9.778-3.396 6.313-6.151 12.96-8.214 19.819-4.091 0.547-8.155 1.121-12.11 1.713-8.807 1.318-15.449 9.039-15.449 17.962v22.355c0 8.922 6.64 16.644 15.447 17.962 3.956 0.592 8.019 1.167 12.111 1.713 2.063 6.858 4.817 13.505 8.214 19.819-2.501 3.272-4.969 6.552-7.357 9.779-5.294 7.159-4.529 17.317 1.78 23.622l15.808 15.808c6.308 6.31 16.464 7.074 23.624 1.778 3.234-2.391 6.514-4.86 9.778-7.354 6.315 3.398 12.963 6.152 19.82 8.214 0.545 4.091 1.12 8.155 1.712 12.111 1.318 8.806 9.04 15.448 17.962 15.448h22.356c8.922 0 16.644-6.64 17.961-15.449 0.591-3.956 1.165-8.019 1.712-12.111 6.858-2.061 13.505-4.817 19.819-8.215 3.263 2.496 6.545 4.964 9.778 7.356 7.159 5.297 17.317 4.532 23.624-1.777l15.808-15.806c6.309-6.308 7.075-16.465 1.778-23.626-2.386-3.226-4.854-6.508-7.354-9.777 3.396-6.313 6.151-12.959 8.214-19.819 4.091-0.547 8.155-1.121 12.11-1.713 8.807-1.318 15.449-9.039 15.449-17.962v-22.355c-1e-3 -8.923-6.642-16.645-15.448-17.963zm-6.325 37.206c-3.592 0.521-7.257 1.027-10.934 1.506-7.273 0.949-13.227 6.111-15.165 13.149-1.857 6.739-4.552 13.242-8.009 19.328-3.611 6.353-3.054 14.215 1.419 20.032 2.255 2.932 4.492 5.883 6.669 8.799l-11.404 11.405c-2.925-2.183-5.876-4.419-8.802-6.669-5.814-4.475-13.678-5.028-20.032-1.421-6.087 3.458-12.59 6.153-19.325 8.01-7.042 1.94-12.204 7.894-13.15 15.165-0.479 3.677-0.984 7.343-1.506 10.935h-16.13c-0.521-3.592-1.026-7.257-1.506-10.931-0.949-7.274-6.11-13.228-13.15-15.168-6.737-1.856-13.238-4.551-19.327-8.009-6.354-3.61-14.218-3.055-20.031 1.419-2.927 2.251-5.876 4.486-8.803 6.669l-11.404-11.405c2.177-2.919 4.413-5.868 6.671-8.803 4.47-5.815 5.027-13.677 1.417-20.03-3.457-6.086-6.152-12.59-8.009-19.327-1.939-7.04-7.892-12.201-15.165-13.15-3.677-0.48-7.343-0.984-10.935-1.507v-16.128c3.592-0.521 7.257-1.027 10.934-1.506 7.273-0.949 13.227-6.111 15.165-13.149 1.857-6.738 4.551-13.241 8.009-19.328 3.611-6.353 3.054-14.216-1.417-20.031-2.259-2.936-4.495-5.886-6.67-8.8l11.404-11.405c2.925 2.183 5.875 4.419 8.8 6.668 5.812 4.475 13.675 5.033 20.034 1.422 6.085-3.457 12.589-6.152 19.325-8.01 7.042-1.94 12.204-7.894 13.15-15.165 0.48-3.677 0.986-7.342 1.507-10.934h16.13c0.521 3.591 1.026 7.256 1.505 10.931 0.949 7.274 6.111 13.228 13.15 15.167 6.738 1.857 13.242 4.553 19.328 8.01 6.355 3.611 14.218 3.05 20.03-1.42 2.927-2.25 5.876-4.486 8.803-6.669l11.404 11.405c-2.175 2.915-4.411 5.866-6.67 8.803-4.471 5.814-5.027 13.676-1.419 20.029 3.457 6.088 6.152 12.592 8.009 19.328 1.939 7.04 7.892 12.201 15.165 13.15 3.677 0.48 7.343 0.985 10.935 1.507z" fill="#fff"/><path d="m381.92 83.675c-25.585 0-46.401 20.815-46.401 46.401 0 25.587 20.815 46.402 46.401 46.402s46.401-20.815 46.401-46.402c0-25.586-20.815-46.401-46.401-46.401zm0 72.176c-14.211 0-25.775-11.563-25.775-25.776s11.563-25.775 25.775-25.775 25.774 11.563 25.775 25.775c0 14.213-11.563 25.776-25.775 25.776z" fill="#fff"/></g><g transform="matrix(.028927 .016701 -.025052 .014464 73.735 203.63)"><path d="m308.6 11.7c-6.8 0-12.3 5.5-12.3 12.3v87.3h-80.6v-87.4c0-6.8-5.5-12.3-12.3-12.3s-12.3 5.5-12.3 12.3v87.3h-52.5c-6.8 0-12.3 5.5-12.3 12.3s5.5 12.2 12.3 12.2h12.2v71.7c0 40.7 23.4 76.1 57.3 93.5v40.9c0 15.6 12.7 28.3 28.3 28.3h7.2v4c0 27.7 22.5 50.2 50.2 50.2h41.4c14.2 0 25.7 11.5 25.7 25.7s-11.5 25.7-25.7 25.7h-196.5c-6.8 0-12.3 5.5-12.3 12.3s5.5 12.3 12.3 12.3h196.6c27.7 0 50.2-22.5 50.2-50.2s-22.5-50.2-50.2-50.2h-41.3c-14.2 0-25.7-11.5-25.7-25.7v-4h7.2c15.6 0 28.3-12.7 28.3-28.3v-40.9c34-17.4 57.3-52.7 57.3-93.5v-71.7h12.2c6.8 0 12.3-5.5 12.3-12.2s-5.5-12.3-12.3-12.3h-52.5v-87.4c0-6.7-5.5-12.2-12.2-12.2zm-29.4 330.2c0 2.1-1.7 3.8-3.8 3.8h-38.8c-2.1 0-3.8-1.7-3.8-3.8v-32c7.5 1.7 15.2 2.7 23.2 2.7s15.7-1 23.2-2.7zm57.4-134.4c0 44.4-36.1 80.6-80.6 80.6s-80.6-36.1-80.6-80.6v-71.7h161.1v71.7z" fill="#fff"/></g><g transform="matrix(.22249 .12845 -.19268 .11124 21.082 175.08)"><g fill="#fff"><path d="m10.5 7c-2.481 0-4.5 2.019-4.5 4.5s2.019 4.5 4.5 4.5 4.5-2.019 4.5-4.5-2.019-4.5-4.5-4.5zm0 7c-1.378 0-2.5-1.121-2.5-2.5s1.122-2.5 2.5-2.5 2.5 1.121 2.5 2.5-1.122 2.5-2.5 2.5z"/><circle cx="50" cy="10" r="1"/><circle cx="46" cy="10" r="1"/><circle cx="52" cy="13" r="1"/><circle cx="48" cy="13" r="1"/><circle cx="42" cy="10" r="1"/><circle cx="44" cy="13" r="1"/><circle cx="38" cy="10" r="1"/><circle cx="40" cy="13" r="1"/><circle cx="34" cy="10" r="1"/><circle cx="36" cy="13" r="1"/><path d="m4.6074 0.25586c-2.944 0-5.3516 2.4075-5.3516 5.3516v11.783c0 1.4331 0.66348 2.6533 1.584 3.6094-0.92043 0.95577-1.584 2.175-1.584 3.6074v11.783c0 2.9449 2.4073 5.3535 5.3516 5.3535h23.648v6.8457c-1.7469 0.5668-3.0992 1.9191-3.666 3.666h-23.59c-0.95333 0-1.7441 0.78964-1.7441 1.7441s0.79081 1.7441 1.7441 1.7441h23.607c0.75114 2.3011 2.8505 4 5.3926 4s4.6414-1.6989 5.3926-4h23.607c0.95333 0 1.7441-0.78964 1.7441-1.7441s-0.79081-1.7441-1.7441-1.7441h-23.59c-0.5668-1.7469-1.9191-3.0992-3.666-3.666v-6.8457h23.648c2.944 0 5.3516-2.4075 5.3516-5.3516v-11.785c0-1.4325-0.66238-2.652-1.582-3.6074 0.91993-0.95569 1.582-2.1755 1.582-3.6074v-11.785c0-2.944-2.4075-5.3516-5.3516-5.3516zm0 3.4883h50.783c1.0362 0 1.8652 0.82864 1.8652 1.8633v11.783c0 1.0362-0.82864 1.8652-1.8633 1.8652h-50.785c-1.035 0-1.8633-0.82832-1.8633-1.8633v-11.785c0-1.035 0.82832-1.8633 1.8633-1.8633zm0 19h50.783c1.0362 0 1.8652 0.82864 1.8652 1.8633v11.783c0 1.0362-0.82864 1.8652-1.8633 1.8652h-50.785c-1.035 0-1.8633-0.82832-1.8633-1.8633v-11.785c0-1.035 0.82832-1.8633 1.8633-1.8633zm25.393 29c1.2507 0 2.2559 1.0052 2.2559 2.2559s-1.0052 2.2559-2.2559 2.2559-2.2559-1.0052-2.2559-2.2559 1.0052-2.2559 2.2559-2.2559z" stroke-width=".15613"/><path d="m10.5 35c2.481 0 4.5-2.019 4.5-4.5s-2.019-4.5-4.5-4.5-4.5 2.019-4.5 4.5 2.019 4.5 4.5 4.5zm0-7c1.378 0 2.5 1.121 2.5 2.5s-1.122 2.5-2.5 2.5-2.5-1.121-2.5-2.5 1.122-2.5 2.5-2.5z"/><circle cx="50" cy="29" r="1"/><circle cx="46" cy="29" r="1"/><circle cx="52" cy="32" r="1"/><circle cx="48" cy="32" r="1"/><circle cx="42" cy="29" r="1"/><circle cx="44" cy="32" r="1"/><circle cx="38" cy="29" r="1"/><circle cx="40" cy="32" r="1"/><circle cx="34" cy="29" r="1"/><circle cx="36" cy="32" r="1"/></g></g></g></svg>
